<mxfile host="www.draw.io" modified="2020-02-27T10:01:42.394Z" agent="Mozilla/5.0 (Windows NT 6.1; Win64; x64; rv:72.0) Gecko/20100101 Firefox/72.0" etag="gXtsyu-xJu0AdY5AMBJT" version="12.7.8" type="github">
  <diagram id="FUw9X7OmCRQf30oBuY6P" name="Page-1">
    <mxGraphModel dx="595" dy="740" grid="1" gridSize="10" guides="1" tooltips="1" connect="1" arrows="1" fold="1" page="1" pageScale="1" pageWidth="827" pageHeight="1169" math="0" shadow="0">
      <root>
        <mxCell id="0" />
        <mxCell id="1" parent="0" />
        <mxCell id="DqM6Q0FQ7EFnhmW7gJWp-73" value="N_LPU" style="swimlane;fontStyle=0;childLayout=stackLayout;horizontal=1;startSize=26;fillColor=#97D077;horizontalStack=0;resizeParent=1;resizeParentMax=0;resizeLast=0;collapsible=1;marginBottom=0;swimlaneFillColor=#CCFF99;align=center;fontSize=14;strokeColor=#003300;" vertex="1" parent="1">
          <mxGeometry x="2050" y="50" width="190" height="560" as="geometry" />
        </mxCell>
        <mxCell id="DqM6Q0FQ7EFnhmW7gJWp-74" value="LPU integer not null" style="shape=partialRectangle;top=0;left=0;right=0;bottom=1;align=left;verticalAlign=middle;fillColor=none;spacingLeft=34;spacingRight=4;overflow=hidden;rotatable=0;points=[[0,0.5],[1,0.5]];portConstraint=eastwest;dropTarget=0;fontStyle=5;fontSize=12;" vertex="1" parent="DqM6Q0FQ7EFnhmW7gJWp-73">
          <mxGeometry y="26" width="190" height="30" as="geometry" />
        </mxCell>
        <mxCell id="DqM6Q0FQ7EFnhmW7gJWp-75" value="PK" style="shape=partialRectangle;top=0;left=0;bottom=0;fillColor=none;align=left;verticalAlign=middle;spacingLeft=4;spacingRight=4;overflow=hidden;rotatable=0;points=[];portConstraint=eastwest;part=1;fontSize=12;" vertex="1" connectable="0" parent="DqM6Q0FQ7EFnhmW7gJWp-74">
          <mxGeometry width="30" height="30" as="geometry" />
        </mxCell>
        <mxCell id="DqM6Q0FQ7EFnhmW7gJWp-76" value="TER integer not null" style="shape=partialRectangle;top=0;left=0;right=0;bottom=0;align=left;verticalAlign=top;fillColor=none;spacingLeft=34;spacingRight=4;overflow=hidden;rotatable=0;points=[[0,0.5],[1,0.5]];portConstraint=eastwest;dropTarget=0;fontSize=12;" vertex="1" parent="DqM6Q0FQ7EFnhmW7gJWp-73">
          <mxGeometry y="56" width="190" height="26" as="geometry" />
        </mxCell>
        <mxCell id="DqM6Q0FQ7EFnhmW7gJWp-77" value="FK" style="shape=partialRectangle;top=0;left=0;bottom=0;fillColor=none;align=left;verticalAlign=top;spacingLeft=4;spacingRight=4;overflow=hidden;rotatable=0;points=[];portConstraint=eastwest;part=1;fontSize=12;" vertex="1" connectable="0" parent="DqM6Q0FQ7EFnhmW7gJWp-76">
          <mxGeometry width="30" height="26" as="geometry" />
        </mxCell>
        <mxCell id="DqM6Q0FQ7EFnhmW7gJWp-78" value="TMO integer" style="shape=partialRectangle;top=0;left=0;right=0;bottom=0;align=left;verticalAlign=top;fillColor=none;spacingLeft=34;spacingRight=4;overflow=hidden;rotatable=0;points=[[0,0.5],[1,0.5]];portConstraint=eastwest;dropTarget=0;fontSize=12;" vertex="1" parent="DqM6Q0FQ7EFnhmW7gJWp-73">
          <mxGeometry y="82" width="190" height="26" as="geometry" />
        </mxCell>
        <mxCell id="DqM6Q0FQ7EFnhmW7gJWp-79" value="" style="shape=partialRectangle;top=0;left=0;bottom=0;fillColor=none;align=left;verticalAlign=top;spacingLeft=4;spacingRight=4;overflow=hidden;rotatable=0;points=[];portConstraint=eastwest;part=1;fontSize=12;" vertex="1" connectable="0" parent="DqM6Q0FQ7EFnhmW7gJWp-78">
          <mxGeometry width="30" height="26" as="geometry" />
        </mxCell>
        <mxCell id="DqM6Q0FQ7EFnhmW7gJWp-80" value="SNLPU varchar(100)" style="shape=partialRectangle;top=0;left=0;right=0;bottom=0;align=left;verticalAlign=top;fillColor=none;spacingLeft=34;spacingRight=4;overflow=hidden;rotatable=0;points=[[0,0.5],[1,0.5]];portConstraint=eastwest;dropTarget=0;fontSize=12;strokeColor=#003300;" vertex="1" parent="DqM6Q0FQ7EFnhmW7gJWp-73">
          <mxGeometry y="108" width="190" height="26" as="geometry" />
        </mxCell>
        <mxCell id="DqM6Q0FQ7EFnhmW7gJWp-81" value="" style="shape=partialRectangle;top=0;left=0;bottom=0;fillColor=none;align=left;verticalAlign=top;spacingLeft=4;spacingRight=4;overflow=hidden;rotatable=0;points=[];portConstraint=eastwest;part=1;fontSize=12;" vertex="1" connectable="0" parent="DqM6Q0FQ7EFnhmW7gJWp-80">
          <mxGeometry width="30" height="26" as="geometry" />
        </mxCell>
        <mxCell id="DqM6Q0FQ7EFnhmW7gJWp-82" value="PNLPU varchar(250)" style="shape=partialRectangle;top=0;left=0;right=0;bottom=0;align=left;verticalAlign=top;fillColor=none;spacingLeft=34;spacingRight=4;overflow=hidden;rotatable=0;points=[[0,0.5],[1,0.5]];portConstraint=eastwest;dropTarget=0;fontSize=12;strokeColor=#003300;" vertex="1" parent="DqM6Q0FQ7EFnhmW7gJWp-73">
          <mxGeometry y="134" width="190" height="26" as="geometry" />
        </mxCell>
        <mxCell id="DqM6Q0FQ7EFnhmW7gJWp-83" value="" style="shape=partialRectangle;top=0;left=0;bottom=0;fillColor=none;align=left;verticalAlign=top;spacingLeft=4;spacingRight=4;overflow=hidden;rotatable=0;points=[];portConstraint=eastwest;part=1;fontSize=12;" vertex="1" connectable="0" parent="DqM6Q0FQ7EFnhmW7gJWp-82">
          <mxGeometry width="30" height="26" as="geometry" />
        </mxCell>
        <mxCell id="DqM6Q0FQ7EFnhmW7gJWp-84" value="PS integer" style="shape=partialRectangle;top=0;left=0;right=0;bottom=0;align=left;verticalAlign=top;fillColor=none;spacingLeft=34;spacingRight=4;overflow=hidden;rotatable=0;points=[[0,0.5],[1,0.5]];portConstraint=eastwest;dropTarget=0;fontSize=12;strokeColor=#003300;" vertex="1" parent="DqM6Q0FQ7EFnhmW7gJWp-73">
          <mxGeometry y="160" width="190" height="26" as="geometry" />
        </mxCell>
        <mxCell id="DqM6Q0FQ7EFnhmW7gJWp-85" value="" style="shape=partialRectangle;top=0;left=0;bottom=0;fillColor=none;align=left;verticalAlign=top;spacingLeft=4;spacingRight=4;overflow=hidden;rotatable=0;points=[];portConstraint=eastwest;part=1;fontSize=12;" vertex="1" connectable="0" parent="DqM6Q0FQ7EFnhmW7gJWp-84">
          <mxGeometry width="30" height="26" as="geometry" />
        </mxCell>
        <mxCell id="DqM6Q0FQ7EFnhmW7gJWp-86" value="TS integer" style="shape=partialRectangle;top=0;left=0;right=0;bottom=0;align=left;verticalAlign=top;fillColor=none;spacingLeft=34;spacingRight=4;overflow=hidden;rotatable=0;points=[[0,0.5],[1,0.5]];portConstraint=eastwest;dropTarget=0;fontSize=12;strokeColor=#003300;" vertex="1" parent="DqM6Q0FQ7EFnhmW7gJWp-73">
          <mxGeometry y="186" width="190" height="26" as="geometry" />
        </mxCell>
        <mxCell id="DqM6Q0FQ7EFnhmW7gJWp-87" value="" style="shape=partialRectangle;top=0;left=0;bottom=0;fillColor=none;align=left;verticalAlign=top;spacingLeft=4;spacingRight=4;overflow=hidden;rotatable=0;points=[];portConstraint=eastwest;part=1;fontSize=12;" vertex="1" connectable="0" parent="DqM6Q0FQ7EFnhmW7gJWp-86">
          <mxGeometry width="30" height="26" as="geometry" />
        </mxCell>
        <mxCell id="DqM6Q0FQ7EFnhmW7gJWp-88" value="TU integer" style="shape=partialRectangle;top=0;left=0;right=0;bottom=0;align=left;verticalAlign=top;fillColor=none;spacingLeft=34;spacingRight=4;overflow=hidden;rotatable=0;points=[[0,0.5],[1,0.5]];portConstraint=eastwest;dropTarget=0;fontSize=12;strokeColor=#003300;" vertex="1" parent="DqM6Q0FQ7EFnhmW7gJWp-73">
          <mxGeometry y="212" width="190" height="26" as="geometry" />
        </mxCell>
        <mxCell id="DqM6Q0FQ7EFnhmW7gJWp-89" value="" style="shape=partialRectangle;top=0;left=0;bottom=0;fillColor=none;align=left;verticalAlign=top;spacingLeft=4;spacingRight=4;overflow=hidden;rotatable=0;points=[];portConstraint=eastwest;part=1;fontSize=12;" vertex="1" connectable="0" parent="DqM6Q0FQ7EFnhmW7gJWp-88">
          <mxGeometry width="30" height="26" as="geometry" />
        </mxCell>
        <mxCell id="DqM6Q0FQ7EFnhmW7gJWp-90" value="TIP integer" style="shape=partialRectangle;top=0;left=0;right=0;bottom=0;align=left;verticalAlign=top;fillColor=none;spacingLeft=34;spacingRight=4;overflow=hidden;rotatable=0;points=[[0,0.5],[1,0.5]];portConstraint=eastwest;dropTarget=0;fontSize=12;strokeColor=#003300;" vertex="1" parent="DqM6Q0FQ7EFnhmW7gJWp-73">
          <mxGeometry y="238" width="190" height="26" as="geometry" />
        </mxCell>
        <mxCell id="DqM6Q0FQ7EFnhmW7gJWp-91" value="" style="shape=partialRectangle;top=0;left=0;bottom=0;fillColor=none;align=left;verticalAlign=top;spacingLeft=4;spacingRight=4;overflow=hidden;rotatable=0;points=[];portConstraint=eastwest;part=1;fontSize=12;" vertex="1" connectable="0" parent="DqM6Q0FQ7EFnhmW7gJWp-90">
          <mxGeometry width="30" height="26" as="geometry" />
        </mxCell>
        <mxCell id="DqM6Q0FQ7EFnhmW7gJWp-92" value="KTG integer" style="shape=partialRectangle;top=0;left=0;right=0;bottom=0;align=left;verticalAlign=top;fillColor=none;spacingLeft=34;spacingRight=4;overflow=hidden;rotatable=0;points=[[0,0.5],[1,0.5]];portConstraint=eastwest;dropTarget=0;fontSize=12;strokeColor=#003300;" vertex="1" parent="DqM6Q0FQ7EFnhmW7gJWp-73">
          <mxGeometry y="264" width="190" height="26" as="geometry" />
        </mxCell>
        <mxCell id="DqM6Q0FQ7EFnhmW7gJWp-93" value="" style="shape=partialRectangle;top=0;left=0;bottom=0;fillColor=none;align=left;verticalAlign=top;spacingLeft=4;spacingRight=4;overflow=hidden;rotatable=0;points=[];portConstraint=eastwest;part=1;fontSize=12;" vertex="1" connectable="0" parent="DqM6Q0FQ7EFnhmW7gJWp-92">
          <mxGeometry width="30" height="26" as="geometry" />
        </mxCell>
        <mxCell id="DqM6Q0FQ7EFnhmW7gJWp-94" value="DLO integer" style="shape=partialRectangle;top=0;left=0;right=0;bottom=0;align=left;verticalAlign=top;fillColor=none;spacingLeft=34;spacingRight=4;overflow=hidden;rotatable=0;points=[[0,0.5],[1,0.5]];portConstraint=eastwest;dropTarget=0;fontSize=12;strokeColor=#003300;" vertex="1" parent="DqM6Q0FQ7EFnhmW7gJWp-73">
          <mxGeometry y="290" width="190" height="26" as="geometry" />
        </mxCell>
        <mxCell id="DqM6Q0FQ7EFnhmW7gJWp-95" value="" style="shape=partialRectangle;top=0;left=0;bottom=0;fillColor=none;align=left;verticalAlign=top;spacingLeft=4;spacingRight=4;overflow=hidden;rotatable=0;points=[];portConstraint=eastwest;part=1;fontSize=12;" vertex="1" connectable="0" parent="DqM6Q0FQ7EFnhmW7gJWp-94">
          <mxGeometry width="30" height="26" as="geometry" />
        </mxCell>
        <mxCell id="DqM6Q0FQ7EFnhmW7gJWp-96" value="PD integer" style="shape=partialRectangle;top=0;left=0;right=0;bottom=0;align=left;verticalAlign=top;fillColor=none;spacingLeft=34;spacingRight=4;overflow=hidden;rotatable=0;points=[[0,0.5],[1,0.5]];portConstraint=eastwest;dropTarget=0;fontSize=12;strokeColor=#003300;" vertex="1" parent="DqM6Q0FQ7EFnhmW7gJWp-73">
          <mxGeometry y="316" width="190" height="26" as="geometry" />
        </mxCell>
        <mxCell id="DqM6Q0FQ7EFnhmW7gJWp-97" value="" style="shape=partialRectangle;top=0;left=0;bottom=0;fillColor=none;align=left;verticalAlign=top;spacingLeft=4;spacingRight=4;overflow=hidden;rotatable=0;points=[];portConstraint=eastwest;part=1;fontSize=12;" vertex="1" connectable="0" parent="DqM6Q0FQ7EFnhmW7gJWp-96">
          <mxGeometry width="30" height="26" as="geometry" />
        </mxCell>
        <mxCell id="DqM6Q0FQ7EFnhmW7gJWp-98" value="ADR_T integer default 0&#xa;" style="shape=partialRectangle;top=0;left=0;right=0;bottom=0;align=left;verticalAlign=top;fillColor=none;spacingLeft=34;spacingRight=4;overflow=hidden;rotatable=0;points=[[0,0.5],[1,0.5]];portConstraint=eastwest;dropTarget=0;fontSize=12;strokeColor=#003300;" vertex="1" parent="DqM6Q0FQ7EFnhmW7gJWp-73">
          <mxGeometry y="342" width="190" height="26" as="geometry" />
        </mxCell>
        <mxCell id="DqM6Q0FQ7EFnhmW7gJWp-99" value="" style="shape=partialRectangle;top=0;left=0;bottom=0;fillColor=none;align=left;verticalAlign=top;spacingLeft=4;spacingRight=4;overflow=hidden;rotatable=0;points=[];portConstraint=eastwest;part=1;fontSize=12;" vertex="1" connectable="0" parent="DqM6Q0FQ7EFnhmW7gJWp-98">
          <mxGeometry width="30" height="26" as="geometry" />
        </mxCell>
        <mxCell id="DqM6Q0FQ7EFnhmW7gJWp-100" value="ADR_N varchar(30)" style="shape=partialRectangle;top=0;left=0;right=0;bottom=0;align=left;verticalAlign=top;fillColor=none;spacingLeft=34;spacingRight=4;overflow=hidden;rotatable=0;points=[[0,0.5],[1,0.5]];portConstraint=eastwest;dropTarget=0;fontSize=12;strokeColor=#003300;" vertex="1" parent="DqM6Q0FQ7EFnhmW7gJWp-73">
          <mxGeometry y="368" width="190" height="26" as="geometry" />
        </mxCell>
        <mxCell id="DqM6Q0FQ7EFnhmW7gJWp-101" value="" style="shape=partialRectangle;top=0;left=0;bottom=0;fillColor=none;align=left;verticalAlign=top;spacingLeft=4;spacingRight=4;overflow=hidden;rotatable=0;points=[];portConstraint=eastwest;part=1;fontSize=12;" vertex="1" connectable="0" parent="DqM6Q0FQ7EFnhmW7gJWp-100">
          <mxGeometry width="30" height="26" as="geometry" />
        </mxCell>
        <mxCell id="DqM6Q0FQ7EFnhmW7gJWp-102" value="ADR_S varchar(30)" style="shape=partialRectangle;top=0;left=0;right=0;bottom=0;align=left;verticalAlign=top;fillColor=none;spacingLeft=34;spacingRight=4;overflow=hidden;rotatable=0;points=[[0,0.5],[1,0.5]];portConstraint=eastwest;dropTarget=0;fontSize=12;strokeColor=#003300;" vertex="1" parent="DqM6Q0FQ7EFnhmW7gJWp-73">
          <mxGeometry y="394" width="190" height="26" as="geometry" />
        </mxCell>
        <mxCell id="DqM6Q0FQ7EFnhmW7gJWp-103" value="" style="shape=partialRectangle;top=0;left=0;bottom=0;fillColor=none;align=left;verticalAlign=top;spacingLeft=4;spacingRight=4;overflow=hidden;rotatable=0;points=[];portConstraint=eastwest;part=1;fontSize=12;" vertex="1" connectable="0" parent="DqM6Q0FQ7EFnhmW7gJWp-102">
          <mxGeometry width="30" height="26" as="geometry" />
        </mxCell>
        <mxCell id="DqM6Q0FQ7EFnhmW7gJWp-104" value="ADR_H varchar(10)" style="shape=partialRectangle;top=0;left=0;right=0;bottom=0;align=left;verticalAlign=top;fillColor=none;spacingLeft=34;spacingRight=4;overflow=hidden;rotatable=0;points=[[0,0.5],[1,0.5]];portConstraint=eastwest;dropTarget=0;fontSize=12;strokeColor=#003300;" vertex="1" parent="DqM6Q0FQ7EFnhmW7gJWp-73">
          <mxGeometry y="420" width="190" height="26" as="geometry" />
        </mxCell>
        <mxCell id="DqM6Q0FQ7EFnhmW7gJWp-105" value="" style="shape=partialRectangle;top=0;left=0;bottom=0;fillColor=none;align=left;verticalAlign=top;spacingLeft=4;spacingRight=4;overflow=hidden;rotatable=0;points=[];portConstraint=eastwest;part=1;fontSize=12;" vertex="1" connectable="0" parent="DqM6Q0FQ7EFnhmW7gJWp-104">
          <mxGeometry width="30" height="26" as="geometry" />
        </mxCell>
        <mxCell id="DqM6Q0FQ7EFnhmW7gJWp-106" value="TER_TMO integer default 0" style="shape=partialRectangle;top=0;left=0;right=0;bottom=0;align=left;verticalAlign=top;fillColor=none;spacingLeft=34;spacingRight=4;overflow=hidden;rotatable=0;points=[[0,0.5],[1,0.5]];portConstraint=eastwest;dropTarget=0;fontSize=12;strokeColor=#003300;" vertex="1" parent="DqM6Q0FQ7EFnhmW7gJWp-73">
          <mxGeometry y="446" width="190" height="26" as="geometry" />
        </mxCell>
        <mxCell id="DqM6Q0FQ7EFnhmW7gJWp-107" value="" style="shape=partialRectangle;top=0;left=0;bottom=0;fillColor=none;align=left;verticalAlign=top;spacingLeft=4;spacingRight=4;overflow=hidden;rotatable=0;points=[];portConstraint=eastwest;part=1;fontSize=12;" vertex="1" connectable="0" parent="DqM6Q0FQ7EFnhmW7gJWp-106">
          <mxGeometry width="30" height="26" as="geometry" />
        </mxCell>
        <mxCell id="DqM6Q0FQ7EFnhmW7gJWp-108" value="L_PD integer default 0" style="shape=partialRectangle;top=0;left=0;right=0;bottom=0;align=left;verticalAlign=top;fillColor=none;spacingLeft=34;spacingRight=4;overflow=hidden;rotatable=0;points=[[0,0.5],[1,0.5]];portConstraint=eastwest;dropTarget=0;fontSize=12;strokeColor=#003300;" vertex="1" parent="DqM6Q0FQ7EFnhmW7gJWp-73">
          <mxGeometry y="472" width="190" height="26" as="geometry" />
        </mxCell>
        <mxCell id="DqM6Q0FQ7EFnhmW7gJWp-109" value="" style="shape=partialRectangle;top=0;left=0;bottom=0;fillColor=none;align=left;verticalAlign=top;spacingLeft=4;spacingRight=4;overflow=hidden;rotatable=0;points=[];portConstraint=eastwest;part=1;fontSize=12;" vertex="1" connectable="0" parent="DqM6Q0FQ7EFnhmW7gJWp-108">
          <mxGeometry width="30" height="26" as="geometry" />
        </mxCell>
        <mxCell id="DqM6Q0FQ7EFnhmW7gJWp-110" value="ADR varchar(80)" style="shape=partialRectangle;top=0;left=0;right=0;bottom=0;align=left;verticalAlign=top;fillColor=none;spacingLeft=34;spacingRight=4;overflow=hidden;rotatable=0;points=[[0,0.5],[1,0.5]];portConstraint=eastwest;dropTarget=0;fontSize=12;strokeColor=#003300;" vertex="1" parent="DqM6Q0FQ7EFnhmW7gJWp-73">
          <mxGeometry y="498" width="190" height="26" as="geometry" />
        </mxCell>
        <mxCell id="DqM6Q0FQ7EFnhmW7gJWp-111" value="" style="shape=partialRectangle;top=0;left=0;bottom=0;fillColor=none;align=left;verticalAlign=top;spacingLeft=4;spacingRight=4;overflow=hidden;rotatable=0;points=[];portConstraint=eastwest;part=1;fontSize=12;" vertex="1" connectable="0" parent="DqM6Q0FQ7EFnhmW7gJWp-110">
          <mxGeometry width="30" height="26" as="geometry" />
        </mxCell>
        <mxCell id="DqM6Q0FQ7EFnhmW7gJWp-112" value="NETG integer default 0" style="shape=partialRectangle;top=0;left=0;right=0;bottom=0;align=left;verticalAlign=top;fillColor=none;spacingLeft=34;spacingRight=4;overflow=hidden;rotatable=0;points=[[0,0.5],[1,0.5]];portConstraint=eastwest;dropTarget=0;fontSize=12;" vertex="1" parent="DqM6Q0FQ7EFnhmW7gJWp-73">
          <mxGeometry y="524" width="190" height="26" as="geometry" />
        </mxCell>
        <mxCell id="DqM6Q0FQ7EFnhmW7gJWp-113" value="" style="shape=partialRectangle;top=0;left=0;bottom=0;fillColor=none;align=left;verticalAlign=top;spacingLeft=4;spacingRight=4;overflow=hidden;rotatable=0;points=[];portConstraint=eastwest;part=1;fontSize=12;" vertex="1" connectable="0" parent="DqM6Q0FQ7EFnhmW7gJWp-112">
          <mxGeometry width="30" height="26" as="geometry" />
        </mxCell>
        <mxCell id="DqM6Q0FQ7EFnhmW7gJWp-114" value="" style="shape=partialRectangle;top=0;left=0;right=0;bottom=0;align=left;verticalAlign=top;fillColor=none;spacingLeft=34;spacingRight=4;overflow=hidden;rotatable=0;points=[[0,0.5],[1,0.5]];portConstraint=eastwest;dropTarget=0;fontSize=12;" vertex="1" parent="DqM6Q0FQ7EFnhmW7gJWp-73">
          <mxGeometry y="550" width="190" height="10" as="geometry" />
        </mxCell>
        <mxCell id="DqM6Q0FQ7EFnhmW7gJWp-115" value="" style="shape=partialRectangle;top=0;left=0;bottom=0;fillColor=none;align=left;verticalAlign=top;spacingLeft=4;spacingRight=4;overflow=hidden;rotatable=0;points=[];portConstraint=eastwest;part=1;fontSize=12;" vertex="1" connectable="0" parent="DqM6Q0FQ7EFnhmW7gJWp-114">
          <mxGeometry width="30" height="10" as="geometry" />
        </mxCell>
        <mxCell id="DqM6Q0FQ7EFnhmW7gJWp-154" value="Patients" style="swimlane;fontStyle=0;childLayout=stackLayout;horizontal=1;startSize=26;fillColor=#FFB570;horizontalStack=0;resizeParent=1;resizeParentMax=0;resizeLast=0;collapsible=1;marginBottom=0;swimlaneFillColor=#FFE599;align=center;fontSize=14;strokeColor=#663300;" vertex="1" parent="1">
          <mxGeometry x="1420" y="46" width="190" height="274" as="geometry" />
        </mxCell>
        <mxCell id="DqM6Q0FQ7EFnhmW7gJWp-155" value="UID integer not null" style="shape=partialRectangle;top=0;left=0;right=0;bottom=1;align=left;verticalAlign=middle;fillColor=none;spacingLeft=34;spacingRight=4;overflow=hidden;rotatable=0;points=[[0,0.5],[1,0.5]];portConstraint=eastwest;dropTarget=0;fontStyle=5;fontSize=12;" vertex="1" parent="DqM6Q0FQ7EFnhmW7gJWp-154">
          <mxGeometry y="26" width="190" height="30" as="geometry" />
        </mxCell>
        <mxCell id="DqM6Q0FQ7EFnhmW7gJWp-156" value="PK" style="shape=partialRectangle;top=0;left=0;bottom=0;fillColor=none;align=left;verticalAlign=middle;spacingLeft=4;spacingRight=4;overflow=hidden;rotatable=0;points=[];portConstraint=eastwest;part=1;fontSize=12;" vertex="1" connectable="0" parent="DqM6Q0FQ7EFnhmW7gJWp-155">
          <mxGeometry width="30" height="30" as="geometry" />
        </mxCell>
        <mxCell id="DqM6Q0FQ7EFnhmW7gJWp-229" value="Surname varchar(32)" style="shape=partialRectangle;top=0;left=0;right=0;bottom=0;align=left;verticalAlign=top;fillColor=none;spacingLeft=34;spacingRight=4;overflow=hidden;rotatable=0;points=[[0,0.5],[1,0.5]];portConstraint=eastwest;dropTarget=0;fontSize=12;strokeColor=#663300;" vertex="1" parent="DqM6Q0FQ7EFnhmW7gJWp-154">
          <mxGeometry y="56" width="190" height="26" as="geometry" />
        </mxCell>
        <mxCell id="DqM6Q0FQ7EFnhmW7gJWp-230" value="" style="shape=partialRectangle;top=0;left=0;bottom=0;fillColor=none;align=left;verticalAlign=top;spacingLeft=4;spacingRight=4;overflow=hidden;rotatable=0;points=[];portConstraint=eastwest;part=1;fontSize=12;" vertex="1" connectable="0" parent="DqM6Q0FQ7EFnhmW7gJWp-229">
          <mxGeometry width="30" height="26" as="geometry" />
        </mxCell>
        <mxCell id="DqM6Q0FQ7EFnhmW7gJWp-161" value="GivenName varchar(20)" style="shape=partialRectangle;top=0;left=0;right=0;bottom=0;align=left;verticalAlign=top;fillColor=none;spacingLeft=34;spacingRight=4;overflow=hidden;rotatable=0;points=[[0,0.5],[1,0.5]];portConstraint=eastwest;dropTarget=0;fontSize=12;strokeColor=#003300;" vertex="1" parent="DqM6Q0FQ7EFnhmW7gJWp-154">
          <mxGeometry y="82" width="190" height="26" as="geometry" />
        </mxCell>
        <mxCell id="DqM6Q0FQ7EFnhmW7gJWp-162" value="" style="shape=partialRectangle;top=0;left=0;bottom=0;fillColor=none;align=left;verticalAlign=top;spacingLeft=4;spacingRight=4;overflow=hidden;rotatable=0;points=[];portConstraint=eastwest;part=1;fontSize=12;" vertex="1" connectable="0" parent="DqM6Q0FQ7EFnhmW7gJWp-161">
          <mxGeometry width="30" height="26" as="geometry" />
        </mxCell>
        <mxCell id="DqM6Q0FQ7EFnhmW7gJWp-165" value="MiddleName varchar(20)" style="shape=partialRectangle;top=0;left=0;right=0;bottom=0;align=left;verticalAlign=top;fillColor=none;spacingLeft=34;spacingRight=4;overflow=hidden;rotatable=0;points=[[0,0.5],[1,0.5]];portConstraint=eastwest;dropTarget=0;fontSize=12;strokeColor=#003300;" vertex="1" parent="DqM6Q0FQ7EFnhmW7gJWp-154">
          <mxGeometry y="108" width="190" height="26" as="geometry" />
        </mxCell>
        <mxCell id="DqM6Q0FQ7EFnhmW7gJWp-166" value="" style="shape=partialRectangle;top=0;left=0;bottom=0;fillColor=none;align=left;verticalAlign=top;spacingLeft=4;spacingRight=4;overflow=hidden;rotatable=0;points=[];portConstraint=eastwest;part=1;fontSize=12;" vertex="1" connectable="0" parent="DqM6Q0FQ7EFnhmW7gJWp-165">
          <mxGeometry width="30" height="26" as="geometry" />
        </mxCell>
        <mxCell id="DqM6Q0FQ7EFnhmW7gJWp-159" value="Sex integer" style="shape=partialRectangle;top=0;left=0;right=0;bottom=0;align=left;verticalAlign=top;fillColor=none;spacingLeft=34;spacingRight=4;overflow=hidden;rotatable=0;points=[[0,0.5],[1,0.5]];portConstraint=eastwest;dropTarget=0;fontSize=12;" vertex="1" parent="DqM6Q0FQ7EFnhmW7gJWp-154">
          <mxGeometry y="134" width="190" height="26" as="geometry" />
        </mxCell>
        <mxCell id="DqM6Q0FQ7EFnhmW7gJWp-160" value="FK" style="shape=partialRectangle;top=0;left=0;bottom=0;fillColor=none;align=left;verticalAlign=top;spacingLeft=4;spacingRight=4;overflow=hidden;rotatable=0;points=[];portConstraint=eastwest;part=1;fontSize=12;" vertex="1" connectable="0" parent="DqM6Q0FQ7EFnhmW7gJWp-159">
          <mxGeometry width="30" height="26" as="geometry" />
        </mxCell>
        <mxCell id="DqM6Q0FQ7EFnhmW7gJWp-167" value="DOB date" style="shape=partialRectangle;top=0;left=0;right=0;bottom=0;align=left;verticalAlign=top;fillColor=none;spacingLeft=34;spacingRight=4;overflow=hidden;rotatable=0;points=[[0,0.5],[1,0.5]];portConstraint=eastwest;dropTarget=0;fontSize=12;strokeColor=#003300;" vertex="1" parent="DqM6Q0FQ7EFnhmW7gJWp-154">
          <mxGeometry y="160" width="190" height="26" as="geometry" />
        </mxCell>
        <mxCell id="DqM6Q0FQ7EFnhmW7gJWp-168" value="" style="shape=partialRectangle;top=0;left=0;bottom=0;fillColor=none;align=left;verticalAlign=top;spacingLeft=4;spacingRight=4;overflow=hidden;rotatable=0;points=[];portConstraint=eastwest;part=1;fontSize=12;" vertex="1" connectable="0" parent="DqM6Q0FQ7EFnhmW7gJWp-167">
          <mxGeometry width="30" height="26" as="geometry" />
        </mxCell>
        <mxCell id="DqM6Q0FQ7EFnhmW7gJWp-171" value="Snilsvarchar(14)" style="shape=partialRectangle;top=0;left=0;right=0;bottom=0;align=left;verticalAlign=top;fillColor=none;spacingLeft=34;spacingRight=4;overflow=hidden;rotatable=0;points=[[0,0.5],[1,0.5]];portConstraint=eastwest;dropTarget=0;fontSize=12;strokeColor=#003300;" vertex="1" parent="DqM6Q0FQ7EFnhmW7gJWp-154">
          <mxGeometry y="186" width="190" height="26" as="geometry" />
        </mxCell>
        <mxCell id="DqM6Q0FQ7EFnhmW7gJWp-172" value="" style="shape=partialRectangle;top=0;left=0;bottom=0;fillColor=none;align=left;verticalAlign=top;spacingLeft=4;spacingRight=4;overflow=hidden;rotatable=0;points=[];portConstraint=eastwest;part=1;fontSize=12;" vertex="1" connectable="0" parent="DqM6Q0FQ7EFnhmW7gJWp-171">
          <mxGeometry width="30" height="26" as="geometry" />
        </mxCell>
        <mxCell id="DqM6Q0FQ7EFnhmW7gJWp-175" value="IdTfOms integer" style="shape=partialRectangle;top=0;left=0;right=0;bottom=0;align=left;verticalAlign=top;fillColor=none;spacingLeft=34;spacingRight=4;overflow=hidden;rotatable=0;points=[[0,0.5],[1,0.5]];portConstraint=eastwest;dropTarget=0;fontSize=12;strokeColor=#003300;" vertex="1" parent="DqM6Q0FQ7EFnhmW7gJWp-154">
          <mxGeometry y="212" width="190" height="26" as="geometry" />
        </mxCell>
        <mxCell id="DqM6Q0FQ7EFnhmW7gJWp-176" value="" style="shape=partialRectangle;top=0;left=0;bottom=0;fillColor=none;align=left;verticalAlign=top;spacingLeft=4;spacingRight=4;overflow=hidden;rotatable=0;points=[];portConstraint=eastwest;part=1;fontSize=12;" vertex="1" connectable="0" parent="DqM6Q0FQ7EFnhmW7gJWp-175">
          <mxGeometry width="30" height="26" as="geometry" />
        </mxCell>
        <mxCell id="DqM6Q0FQ7EFnhmW7gJWp-177" value="IsPFR integer" style="shape=partialRectangle;top=0;left=0;right=0;bottom=0;align=left;verticalAlign=top;fillColor=none;spacingLeft=34;spacingRight=4;overflow=hidden;rotatable=0;points=[[0,0.5],[1,0.5]];portConstraint=eastwest;dropTarget=0;fontSize=12;strokeColor=#003300;" vertex="1" parent="DqM6Q0FQ7EFnhmW7gJWp-154">
          <mxGeometry y="238" width="190" height="26" as="geometry" />
        </mxCell>
        <mxCell id="DqM6Q0FQ7EFnhmW7gJWp-178" value="" style="shape=partialRectangle;top=0;left=0;bottom=0;fillColor=none;align=left;verticalAlign=top;spacingLeft=4;spacingRight=4;overflow=hidden;rotatable=0;points=[];portConstraint=eastwest;part=1;fontSize=12;" vertex="1" connectable="0" parent="DqM6Q0FQ7EFnhmW7gJWp-177">
          <mxGeometry width="30" height="26" as="geometry" />
        </mxCell>
        <mxCell id="DqM6Q0FQ7EFnhmW7gJWp-265" value="" style="shape=partialRectangle;top=0;left=0;right=0;bottom=0;align=left;verticalAlign=top;fillColor=none;spacingLeft=34;spacingRight=4;overflow=hidden;rotatable=0;points=[[0,0.5],[1,0.5]];portConstraint=eastwest;dropTarget=0;fontSize=12;" vertex="1" parent="DqM6Q0FQ7EFnhmW7gJWp-154">
          <mxGeometry y="264" width="190" height="10" as="geometry" />
        </mxCell>
        <mxCell id="DqM6Q0FQ7EFnhmW7gJWp-266" value="" style="shape=partialRectangle;top=0;left=0;bottom=0;fillColor=none;align=left;verticalAlign=top;spacingLeft=4;spacingRight=4;overflow=hidden;rotatable=0;points=[];portConstraint=eastwest;part=1;fontSize=12;" vertex="1" connectable="0" parent="DqM6Q0FQ7EFnhmW7gJWp-265">
          <mxGeometry width="30" height="10" as="geometry" />
        </mxCell>
        <mxCell id="DqM6Q0FQ7EFnhmW7gJWp-671" value="PatDocuments" style="swimlane;fontStyle=0;childLayout=stackLayout;horizontal=1;startSize=26;fillColor=#FFB570;horizontalStack=0;resizeParent=1;resizeParentMax=0;resizeLast=0;collapsible=1;marginBottom=0;swimlaneFillColor=#FFE599;align=center;fontSize=14;strokeColor=#663300;" vertex="1" parent="1">
          <mxGeometry x="1780" y="46" width="220" height="196" as="geometry" />
        </mxCell>
        <mxCell id="DqM6Q0FQ7EFnhmW7gJWp-672" value="ID integer not null" style="shape=partialRectangle;top=0;left=0;right=0;bottom=1;align=left;verticalAlign=middle;fillColor=none;spacingLeft=34;spacingRight=4;overflow=hidden;rotatable=0;points=[[0,0.5],[1,0.5]];portConstraint=eastwest;dropTarget=0;fontStyle=5;fontSize=12;" vertex="1" parent="DqM6Q0FQ7EFnhmW7gJWp-671">
          <mxGeometry y="26" width="220" height="30" as="geometry" />
        </mxCell>
        <mxCell id="DqM6Q0FQ7EFnhmW7gJWp-673" value="PK" style="shape=partialRectangle;top=0;left=0;bottom=0;fillColor=none;align=left;verticalAlign=middle;spacingLeft=4;spacingRight=4;overflow=hidden;rotatable=0;points=[];portConstraint=eastwest;part=1;fontSize=12;" vertex="1" connectable="0" parent="DqM6Q0FQ7EFnhmW7gJWp-672">
          <mxGeometry width="30" height="30" as="geometry" />
        </mxCell>
        <mxCell id="DqM6Q0FQ7EFnhmW7gJWp-674" value="UID integer not null" style="shape=partialRectangle;top=0;left=0;right=0;bottom=0;align=left;verticalAlign=top;fillColor=none;spacingLeft=34;spacingRight=4;overflow=hidden;rotatable=0;points=[[0,0.5],[1,0.5]];portConstraint=eastwest;dropTarget=0;fontSize=12;strokeColor=#663300;" vertex="1" parent="DqM6Q0FQ7EFnhmW7gJWp-671">
          <mxGeometry y="56" width="220" height="26" as="geometry" />
        </mxCell>
        <mxCell id="DqM6Q0FQ7EFnhmW7gJWp-675" value="FK" style="shape=partialRectangle;top=0;left=0;bottom=0;fillColor=none;align=left;verticalAlign=top;spacingLeft=4;spacingRight=4;overflow=hidden;rotatable=0;points=[];portConstraint=eastwest;part=1;fontSize=12;" vertex="1" connectable="0" parent="DqM6Q0FQ7EFnhmW7gJWp-674">
          <mxGeometry width="30" height="26" as="geometry" />
        </mxCell>
        <mxCell id="DqM6Q0FQ7EFnhmW7gJWp-676" value="DocumentType integer not null" style="shape=partialRectangle;top=0;left=0;right=0;bottom=0;align=left;verticalAlign=top;fillColor=none;spacingLeft=34;spacingRight=4;overflow=hidden;rotatable=0;points=[[0,0.5],[1,0.5]];portConstraint=eastwest;dropTarget=0;fontSize=12;strokeColor=#003300;" vertex="1" parent="DqM6Q0FQ7EFnhmW7gJWp-671">
          <mxGeometry y="82" width="220" height="26" as="geometry" />
        </mxCell>
        <mxCell id="DqM6Q0FQ7EFnhmW7gJWp-677" value="FK" style="shape=partialRectangle;top=0;left=0;bottom=0;fillColor=none;align=left;verticalAlign=top;spacingLeft=4;spacingRight=4;overflow=hidden;rotatable=0;points=[];portConstraint=eastwest;part=1;fontSize=12;" vertex="1" connectable="0" parent="DqM6Q0FQ7EFnhmW7gJWp-676">
          <mxGeometry width="30" height="26" as="geometry" />
        </mxCell>
        <mxCell id="DqM6Q0FQ7EFnhmW7gJWp-678" value="DocumentN varchar(10)" style="shape=partialRectangle;top=0;left=0;right=0;bottom=0;align=left;verticalAlign=top;fillColor=none;spacingLeft=34;spacingRight=4;overflow=hidden;rotatable=0;points=[[0,0.5],[1,0.5]];portConstraint=eastwest;dropTarget=0;fontSize=12;strokeColor=#003300;" vertex="1" parent="DqM6Q0FQ7EFnhmW7gJWp-671">
          <mxGeometry y="108" width="220" height="26" as="geometry" />
        </mxCell>
        <mxCell id="DqM6Q0FQ7EFnhmW7gJWp-679" value="" style="shape=partialRectangle;top=0;left=0;bottom=0;fillColor=none;align=left;verticalAlign=top;spacingLeft=4;spacingRight=4;overflow=hidden;rotatable=0;points=[];portConstraint=eastwest;part=1;fontSize=12;" vertex="1" connectable="0" parent="DqM6Q0FQ7EFnhmW7gJWp-678">
          <mxGeometry width="30" height="26" as="geometry" />
        </mxCell>
        <mxCell id="DqM6Q0FQ7EFnhmW7gJWp-680" value="DocumentS varchar(8)" style="shape=partialRectangle;top=0;left=0;right=0;bottom=0;align=left;verticalAlign=top;fillColor=none;spacingLeft=34;spacingRight=4;overflow=hidden;rotatable=0;points=[[0,0.5],[1,0.5]];portConstraint=eastwest;dropTarget=0;fontSize=12;" vertex="1" parent="DqM6Q0FQ7EFnhmW7gJWp-671">
          <mxGeometry y="134" width="220" height="26" as="geometry" />
        </mxCell>
        <mxCell id="DqM6Q0FQ7EFnhmW7gJWp-681" value="" style="shape=partialRectangle;top=0;left=0;bottom=0;fillColor=none;align=left;verticalAlign=top;spacingLeft=4;spacingRight=4;overflow=hidden;rotatable=0;points=[];portConstraint=eastwest;part=1;fontSize=12;" vertex="1" connectable="0" parent="DqM6Q0FQ7EFnhmW7gJWp-680">
          <mxGeometry width="30" height="26" as="geometry" />
        </mxCell>
        <mxCell id="DqM6Q0FQ7EFnhmW7gJWp-682" value="DocumentDate date" style="shape=partialRectangle;top=0;left=0;right=0;bottom=0;align=left;verticalAlign=top;fillColor=none;spacingLeft=34;spacingRight=4;overflow=hidden;rotatable=0;points=[[0,0.5],[1,0.5]];portConstraint=eastwest;dropTarget=0;fontSize=12;strokeColor=#003300;" vertex="1" parent="DqM6Q0FQ7EFnhmW7gJWp-671">
          <mxGeometry y="160" width="220" height="26" as="geometry" />
        </mxCell>
        <mxCell id="DqM6Q0FQ7EFnhmW7gJWp-683" value="" style="shape=partialRectangle;top=0;left=0;bottom=0;fillColor=none;align=left;verticalAlign=top;spacingLeft=4;spacingRight=4;overflow=hidden;rotatable=0;points=[];portConstraint=eastwest;part=1;fontSize=12;" vertex="1" connectable="0" parent="DqM6Q0FQ7EFnhmW7gJWp-682">
          <mxGeometry width="30" height="26" as="geometry" />
        </mxCell>
        <mxCell id="DqM6Q0FQ7EFnhmW7gJWp-690" value="" style="shape=partialRectangle;top=0;left=0;right=0;bottom=0;align=left;verticalAlign=top;fillColor=none;spacingLeft=34;spacingRight=4;overflow=hidden;rotatable=0;points=[[0,0.5],[1,0.5]];portConstraint=eastwest;dropTarget=0;fontSize=12;" vertex="1" parent="DqM6Q0FQ7EFnhmW7gJWp-671">
          <mxGeometry y="186" width="220" height="10" as="geometry" />
        </mxCell>
        <mxCell id="DqM6Q0FQ7EFnhmW7gJWp-691" value="" style="shape=partialRectangle;top=0;left=0;bottom=0;fillColor=none;align=left;verticalAlign=top;spacingLeft=4;spacingRight=4;overflow=hidden;rotatable=0;points=[];portConstraint=eastwest;part=1;fontSize=12;" vertex="1" connectable="0" parent="DqM6Q0FQ7EFnhmW7gJWp-690">
          <mxGeometry width="30" height="10" as="geometry" />
        </mxCell>
        <mxCell id="DqM6Q0FQ7EFnhmW7gJWp-692" style="edgeStyle=orthogonalEdgeStyle;rounded=0;orthogonalLoop=1;jettySize=auto;html=1;exitX=1;exitY=0.5;exitDx=0;exitDy=0;entryX=0;entryY=0.5;entryDx=0;entryDy=0;endArrow=ERmany;endFill=0;" edge="1" parent="1" source="DqM6Q0FQ7EFnhmW7gJWp-155" target="DqM6Q0FQ7EFnhmW7gJWp-672">
          <mxGeometry relative="1" as="geometry" />
        </mxCell>
        <mxCell id="DqM6Q0FQ7EFnhmW7gJWp-693" value="PatDiagnoses" style="swimlane;fontStyle=0;childLayout=stackLayout;horizontal=1;startSize=26;fillColor=#FFB570;horizontalStack=0;resizeParent=1;resizeParentMax=0;resizeLast=0;collapsible=1;marginBottom=0;swimlaneFillColor=#FFE599;align=center;fontSize=14;strokeColor=#663300;" vertex="1" parent="1">
          <mxGeometry x="1780" y="260" width="220" height="170" as="geometry" />
        </mxCell>
        <mxCell id="DqM6Q0FQ7EFnhmW7gJWp-694" value="ID integer not null" style="shape=partialRectangle;top=0;left=0;right=0;bottom=1;align=left;verticalAlign=middle;fillColor=none;spacingLeft=34;spacingRight=4;overflow=hidden;rotatable=0;points=[[0,0.5],[1,0.5]];portConstraint=eastwest;dropTarget=0;fontStyle=5;fontSize=12;" vertex="1" parent="DqM6Q0FQ7EFnhmW7gJWp-693">
          <mxGeometry y="26" width="220" height="30" as="geometry" />
        </mxCell>
        <mxCell id="DqM6Q0FQ7EFnhmW7gJWp-695" value="PK" style="shape=partialRectangle;top=0;left=0;bottom=0;fillColor=none;align=left;verticalAlign=middle;spacingLeft=4;spacingRight=4;overflow=hidden;rotatable=0;points=[];portConstraint=eastwest;part=1;fontSize=12;" vertex="1" connectable="0" parent="DqM6Q0FQ7EFnhmW7gJWp-694">
          <mxGeometry width="30" height="30" as="geometry" />
        </mxCell>
        <mxCell id="DqM6Q0FQ7EFnhmW7gJWp-696" value="UID integer not null" style="shape=partialRectangle;top=0;left=0;right=0;bottom=0;align=left;verticalAlign=top;fillColor=none;spacingLeft=34;spacingRight=4;overflow=hidden;rotatable=0;points=[[0,0.5],[1,0.5]];portConstraint=eastwest;dropTarget=0;fontSize=12;strokeColor=#663300;" vertex="1" parent="DqM6Q0FQ7EFnhmW7gJWp-693">
          <mxGeometry y="56" width="220" height="26" as="geometry" />
        </mxCell>
        <mxCell id="DqM6Q0FQ7EFnhmW7gJWp-697" value="FK" style="shape=partialRectangle;top=0;left=0;bottom=0;fillColor=none;align=left;verticalAlign=top;spacingLeft=4;spacingRight=4;overflow=hidden;rotatable=0;points=[];portConstraint=eastwest;part=1;fontSize=12;" vertex="1" connectable="0" parent="DqM6Q0FQ7EFnhmW7gJWp-696">
          <mxGeometry width="30" height="26" as="geometry" />
        </mxCell>
        <mxCell id="DqM6Q0FQ7EFnhmW7gJWp-698" value="DiagnosisMkb10" style="shape=partialRectangle;top=0;left=0;right=0;bottom=0;align=left;verticalAlign=top;fillColor=none;spacingLeft=34;spacingRight=4;overflow=hidden;rotatable=0;points=[[0,0.5],[1,0.5]];portConstraint=eastwest;dropTarget=0;fontSize=12;strokeColor=#003300;" vertex="1" parent="DqM6Q0FQ7EFnhmW7gJWp-693">
          <mxGeometry y="82" width="220" height="26" as="geometry" />
        </mxCell>
        <mxCell id="DqM6Q0FQ7EFnhmW7gJWp-699" value="FK" style="shape=partialRectangle;top=0;left=0;bottom=0;fillColor=none;align=left;verticalAlign=top;spacingLeft=4;spacingRight=4;overflow=hidden;rotatable=0;points=[];portConstraint=eastwest;part=1;fontSize=12;" vertex="1" connectable="0" parent="DqM6Q0FQ7EFnhmW7gJWp-698">
          <mxGeometry width="30" height="26" as="geometry" />
        </mxCell>
        <mxCell id="DqM6Q0FQ7EFnhmW7gJWp-700" value="DateStart" style="shape=partialRectangle;top=0;left=0;right=0;bottom=0;align=left;verticalAlign=top;fillColor=none;spacingLeft=34;spacingRight=4;overflow=hidden;rotatable=0;points=[[0,0.5],[1,0.5]];portConstraint=eastwest;dropTarget=0;fontSize=12;strokeColor=#003300;" vertex="1" parent="DqM6Q0FQ7EFnhmW7gJWp-693">
          <mxGeometry y="108" width="220" height="26" as="geometry" />
        </mxCell>
        <mxCell id="DqM6Q0FQ7EFnhmW7gJWp-701" value="" style="shape=partialRectangle;top=0;left=0;bottom=0;fillColor=none;align=left;verticalAlign=top;spacingLeft=4;spacingRight=4;overflow=hidden;rotatable=0;points=[];portConstraint=eastwest;part=1;fontSize=12;" vertex="1" connectable="0" parent="DqM6Q0FQ7EFnhmW7gJWp-700">
          <mxGeometry width="30" height="26" as="geometry" />
        </mxCell>
        <mxCell id="DqM6Q0FQ7EFnhmW7gJWp-702" value="DateEnd" style="shape=partialRectangle;top=0;left=0;right=0;bottom=0;align=left;verticalAlign=top;fillColor=none;spacingLeft=34;spacingRight=4;overflow=hidden;rotatable=0;points=[[0,0.5],[1,0.5]];portConstraint=eastwest;dropTarget=0;fontSize=12;" vertex="1" parent="DqM6Q0FQ7EFnhmW7gJWp-693">
          <mxGeometry y="134" width="220" height="26" as="geometry" />
        </mxCell>
        <mxCell id="DqM6Q0FQ7EFnhmW7gJWp-703" value="" style="shape=partialRectangle;top=0;left=0;bottom=0;fillColor=none;align=left;verticalAlign=top;spacingLeft=4;spacingRight=4;overflow=hidden;rotatable=0;points=[];portConstraint=eastwest;part=1;fontSize=12;" vertex="1" connectable="0" parent="DqM6Q0FQ7EFnhmW7gJWp-702">
          <mxGeometry width="30" height="26" as="geometry" />
        </mxCell>
        <mxCell id="DqM6Q0FQ7EFnhmW7gJWp-706" value="" style="shape=partialRectangle;top=0;left=0;right=0;bottom=0;align=left;verticalAlign=top;fillColor=none;spacingLeft=34;spacingRight=4;overflow=hidden;rotatable=0;points=[[0,0.5],[1,0.5]];portConstraint=eastwest;dropTarget=0;fontSize=12;" vertex="1" parent="DqM6Q0FQ7EFnhmW7gJWp-693">
          <mxGeometry y="160" width="220" height="10" as="geometry" />
        </mxCell>
        <mxCell id="DqM6Q0FQ7EFnhmW7gJWp-707" value="" style="shape=partialRectangle;top=0;left=0;bottom=0;fillColor=none;align=left;verticalAlign=top;spacingLeft=4;spacingRight=4;overflow=hidden;rotatable=0;points=[];portConstraint=eastwest;part=1;fontSize=12;" vertex="1" connectable="0" parent="DqM6Q0FQ7EFnhmW7gJWp-706">
          <mxGeometry width="30" height="10" as="geometry" />
        </mxCell>
        <mxCell id="DqM6Q0FQ7EFnhmW7gJWp-709" style="edgeStyle=orthogonalEdgeStyle;rounded=0;orthogonalLoop=1;jettySize=auto;html=1;exitX=1;exitY=0.5;exitDx=0;exitDy=0;endArrow=ERmany;endFill=0;" edge="1" parent="1" source="DqM6Q0FQ7EFnhmW7gJWp-155" target="DqM6Q0FQ7EFnhmW7gJWp-694">
          <mxGeometry relative="1" as="geometry" />
        </mxCell>
        <mxCell id="DqM6Q0FQ7EFnhmW7gJWp-711" value="SprSex" style="swimlane;fontStyle=0;childLayout=stackLayout;horizontal=1;startSize=26;fillColor=#97D077;horizontalStack=0;resizeParent=1;resizeParentMax=0;resizeLast=0;collapsible=1;marginBottom=0;swimlaneFillColor=#CCFF99;align=center;fontSize=14;strokeColor=#003300;" vertex="1" parent="1">
          <mxGeometry x="1170" y="186" width="190" height="134" as="geometry" />
        </mxCell>
        <mxCell id="DqM6Q0FQ7EFnhmW7gJWp-712" value="ID integer not null" style="shape=partialRectangle;top=0;left=0;right=0;bottom=1;align=left;verticalAlign=middle;fillColor=none;spacingLeft=34;spacingRight=4;overflow=hidden;rotatable=0;points=[[0,0.5],[1,0.5]];portConstraint=eastwest;dropTarget=0;fontStyle=5;fontSize=12;" vertex="1" parent="DqM6Q0FQ7EFnhmW7gJWp-711">
          <mxGeometry y="26" width="190" height="30" as="geometry" />
        </mxCell>
        <mxCell id="DqM6Q0FQ7EFnhmW7gJWp-713" value="PK" style="shape=partialRectangle;top=0;left=0;bottom=0;fillColor=none;align=left;verticalAlign=middle;spacingLeft=4;spacingRight=4;overflow=hidden;rotatable=0;points=[];portConstraint=eastwest;part=1;fontSize=12;" vertex="1" connectable="0" parent="DqM6Q0FQ7EFnhmW7gJWp-712">
          <mxGeometry width="30" height="30" as="geometry" />
        </mxCell>
        <mxCell id="DqM6Q0FQ7EFnhmW7gJWp-718" value="Name varchar(15)" style="shape=partialRectangle;top=0;left=0;right=0;bottom=0;align=left;verticalAlign=top;fillColor=none;spacingLeft=34;spacingRight=4;overflow=hidden;rotatable=0;points=[[0,0.5],[1,0.5]];portConstraint=eastwest;dropTarget=0;fontSize=12;strokeColor=#003300;" vertex="1" parent="DqM6Q0FQ7EFnhmW7gJWp-711">
          <mxGeometry y="56" width="190" height="26" as="geometry" />
        </mxCell>
        <mxCell id="DqM6Q0FQ7EFnhmW7gJWp-719" value="" style="shape=partialRectangle;top=0;left=0;bottom=0;fillColor=none;align=left;verticalAlign=top;spacingLeft=4;spacingRight=4;overflow=hidden;rotatable=0;points=[];portConstraint=eastwest;part=1;fontSize=12;" vertex="1" connectable="0" parent="DqM6Q0FQ7EFnhmW7gJWp-718">
          <mxGeometry width="30" height="26" as="geometry" />
        </mxCell>
        <mxCell id="DqM6Q0FQ7EFnhmW7gJWp-720" value="RUSL varchar(1)" style="shape=partialRectangle;top=0;left=0;right=0;bottom=0;align=left;verticalAlign=top;fillColor=none;spacingLeft=34;spacingRight=4;overflow=hidden;rotatable=0;points=[[0,0.5],[1,0.5]];portConstraint=eastwest;dropTarget=0;fontSize=12;strokeColor=#003300;" vertex="1" parent="DqM6Q0FQ7EFnhmW7gJWp-711">
          <mxGeometry y="82" width="190" height="26" as="geometry" />
        </mxCell>
        <mxCell id="DqM6Q0FQ7EFnhmW7gJWp-721" value="" style="shape=partialRectangle;top=0;left=0;bottom=0;fillColor=none;align=left;verticalAlign=top;spacingLeft=4;spacingRight=4;overflow=hidden;rotatable=0;points=[];portConstraint=eastwest;part=1;fontSize=12;" vertex="1" connectable="0" parent="DqM6Q0FQ7EFnhmW7gJWp-720">
          <mxGeometry width="30" height="26" as="geometry" />
        </mxCell>
        <mxCell id="DqM6Q0FQ7EFnhmW7gJWp-738" value="ENL varchar(1)" style="shape=partialRectangle;top=0;left=0;right=0;bottom=0;align=left;verticalAlign=top;fillColor=none;spacingLeft=34;spacingRight=4;overflow=hidden;rotatable=0;points=[[0,0.5],[1,0.5]];portConstraint=eastwest;dropTarget=0;fontSize=12;strokeColor=#003300;" vertex="1" parent="DqM6Q0FQ7EFnhmW7gJWp-711">
          <mxGeometry y="108" width="190" height="26" as="geometry" />
        </mxCell>
        <mxCell id="DqM6Q0FQ7EFnhmW7gJWp-739" value="" style="shape=partialRectangle;top=0;left=0;bottom=0;fillColor=none;align=left;verticalAlign=top;spacingLeft=4;spacingRight=4;overflow=hidden;rotatable=0;points=[];portConstraint=eastwest;part=1;fontSize=12;" vertex="1" connectable="0" parent="DqM6Q0FQ7EFnhmW7gJWp-738">
          <mxGeometry width="30" height="26" as="geometry" />
        </mxCell>
        <mxCell id="DqM6Q0FQ7EFnhmW7gJWp-754" style="edgeStyle=orthogonalEdgeStyle;rounded=0;orthogonalLoop=1;jettySize=auto;html=1;exitX=1;exitY=0.5;exitDx=0;exitDy=0;entryX=0;entryY=0.5;entryDx=0;entryDy=0;endArrow=ERmany;endFill=0;" edge="1" parent="1" source="DqM6Q0FQ7EFnhmW7gJWp-712" target="DqM6Q0FQ7EFnhmW7gJWp-159">
          <mxGeometry relative="1" as="geometry" />
        </mxCell>
      </root>
    </mxGraphModel>
  </diagram>
</mxfile>
